# xmcd
#
# Track frame offsets:
#	150
#	16810
#	34890
#	50300
#	65460
#	78872
#	95290
#	108830
#	124355
#	136217
#	153625
#	172417
#	184597
#	203917
#
# Disc length: 2902
#
# Revision: 3
# Processed by: cddbd v1.5.1PL0 Copyright (c) Steve Scherf et al.
# Submitted via: VisiTrax 2.9.5.180 - For more info visit www.synapsa.com
# Normalized: r2:DSETVAR1
#
DISCID=b90b540e
DTITLE=Various Artist - Mr. Music Country 07-97
DYEAR=1997
DGENRE=
TTITLE0=Wade Hayes - This Is the Life for Me
TTITLE1=Bellamy Brothers - Old Hippie (Sequel)
TTITLE2=Rick Trevino - Tal Como Ayer
TTITLE3=Rayburn Anthon - Far Side Banks of Jordan
TTITLE4=Becky Hobbs - From Oklahoma with Love
TTITLE5=Larry Stewart - Larry Stewart: I've Got My Hands Full
TTITLE6=Joe Diffie - Down in a Ditch
TTITLE7=Josh Logan - Made You a Woman
TTITLE8=Ken Mellons - Don't make me have to come in there
TTITLE9=Patty Loveless - Someday I Will Lead the
TTITLE10=Chris Wall - The End of Rainbow Inn
TTITLE11=Carlene Carter - Carl Smith - Loose Talk
TTITLE12=Aaron Springfield - Something about You never changed
TTITLE13=Deryl Dodd - Friends Don't Drive Friends (to drink)
EXTD=
EXTT0=
EXTT1=
EXTT2=
EXTT3=
EXTT4=
EXTT5=
EXTT6=
EXTT7=
EXTT8=
EXTT9=
EXTT10=
EXTT11=
EXTT12=
EXTT13=
PLAYORDER=
